<svg xmlns="http://www.w3.org/2000/svg" viewBox="0 0 1080 1080"><defs><style>.cls-1{isolation:isolate;}.cls-2,.cls-3{fill:#970148;}.cls-3{opacity:0.3;mix-blend-mode:multiply;}</style></defs><g class="cls-1"><g id="Layer_1" data-name="Layer 1"><path class="cls-2" d="M327.78,454.55c-70.91,56.64-115.4,139.56-126.42,229.54l-4.1.56c-11.44-30.37-21-62-25.28-94.5C126.64,240.84,551.38,27.41,802.67,277.28c101,100.43,140.69,257.93,87.58,393.1-1.7,4.38-4.81,16.81-10.31,13.56-9.61-94.21-61.31-183.2-137.58-238.57C617.63,354.83,448.27,358.22,327.78,454.55ZM430.33,32.49C143.31,94.08-36.93,385.76,36.94,671.66a517.81,517.81,0,0,0,76,165.4c4.94,7.06,9.89,13.84,15.11,20.62a531.06,531.06,0,0,0,46.33,52.55c77.83,77.26,179.25,130.09,291,145.63V897.8C322.42,837.2,307.58,638.89,439.65,557c137.3-85.18,311.6,27.82,292.82,187.16-8.05,67.52-54,127.55-115.83,153.54V1056c112.72-15.54,215-69.35,292.82-147.75h.14l.7-.71.57-.7A472.82,472.82,0,0,0,954,857.54c5.23-6.78,10.17-13.56,15-20.62a509.38,509.38,0,0,0,87.44-221.34C1106.5,256.09,786.43-44.07,430.33,32.49Z"/><rect class="cls-2" x="18.22" y="910.23" width="447.2" height="149.3"/><rect class="cls-2" x="616.7" y="908.25" width="445.08" height="151.28"/><path class="cls-3" d="M465.36,897.8l-291,12.43a531.06,531.06,0,0,1-46.33-52.55c-5.22-6.78-10.17-13.56-15.11-20.62Z"/><path class="cls-3" d="M968.92,836.92c-4.8,7.06-9.74,13.84-15,20.62a472.82,472.82,0,0,1-43.08,49.3l-.57.7-.7.71h-.14l-2.26,2-46.19-2L616.64,897.8Z"/></g></g></svg>