<svg xmlns="http://www.w3.org/2000/svg" viewBox="0 0 1366 241.6"><defs><style>.cls-1{isolation:isolate;}.cls-2,.cls-3{fill:#970148;}.cls-3{opacity:0.3;mix-blend-mode:multiply;}</style></defs><g class="cls-1"><g id="Layer_1" data-name="Layer 1"><path class="cls-2" d="M347.11,205.91q-18.48,0-32.9-8.46a62.72,62.72,0,0,1-22.88-23,64.13,64.13,0,0,1-8.45-32.8q0-18.25,8.34-32.68a61,61,0,0,1,22.87-22.76q14.55-8.34,33-8.34a63.55,63.55,0,0,1,24.34,4.62A59.75,59.75,0,0,1,391,95.25a47.22,47.22,0,0,1,11.83,18.93l-25.92,11.49a30,30,0,0,0-11.38-15,31.58,31.58,0,0,0-18.37-5.52,32.35,32.35,0,0,0-17.24,4.62A31.75,31.75,0,0,0,318,122.85a41.52,41.52,0,0,0-4.28,19.05A41.24,41.24,0,0,0,318,161.05a32.73,32.73,0,0,0,11.83,13.08,31.81,31.81,0,0,0,17.24,4.73,30.47,30.47,0,0,0,18.37-5.64,32.34,32.34,0,0,0,11.38-15.1l25.92,11.72a49.42,49.42,0,0,1-11.72,18.6,57.43,57.43,0,0,1-19.38,12.84A64.17,64.17,0,0,1,347.11,205.91Z"/><path class="cls-2" d="M484.81,205.91a65,65,0,0,1-32.56-8.34,64,64,0,0,1-23.56-22.77q-8.79-14.42-8.78-32.9T428.69,109a64.47,64.47,0,0,1,56.12-31.1,65.35,65.35,0,0,1,32.91,8.34A63.65,63.65,0,0,1,541,108.88q8.69,14.31,8.68,33,0,18.48-8.79,32.9a64.21,64.21,0,0,1-23.44,22.77A64.89,64.89,0,0,1,484.81,205.91Zm0-27a32.64,32.64,0,0,0,17.69-4.73,33.3,33.3,0,0,0,12-13.19,40.63,40.63,0,0,0,4.39-19A40,40,0,0,0,514.45,123a33.53,33.53,0,0,0-12-13.08,35.24,35.24,0,0,0-35.27,0A33.25,33.25,0,0,0,455.18,123a40,40,0,0,0-4.4,18.93,40.64,40.64,0,0,0,4.4,19,32.2,32.2,0,0,0,29.63,17.92Z"/><path class="cls-2" d="M571.81,203.2V80.59h27.94v27.28l-2.25-4.06q4.28-13.75,13.41-19.16t22-5.41h7.21v26.37H629.5q-12.62,0-20.28,7.67t-7.66,21.63V203.2Z"/><path class="cls-2" d="M715.59,204.55q-20.73,0-32.23-11.38t-11.49-32.12V107h-21V80.59h2.25q9,0,13.87-4.73t4.84-13.74V52.65h29.75V80.59h28.17V107H701.62v52.52a22.92,22.92,0,0,0,2.14,10.36,14.27,14.27,0,0,0,6.76,6.54,27,27,0,0,0,11.84,2.26,36.29,36.29,0,0,0,3.71-.23l4.17-.45V203.2q-3.15.45-7.21.9A67.77,67.77,0,0,1,715.59,204.55Z"/><path class="cls-2" d="M752.55,66.85V35.29H782.3V66.85Zm0,136.35V80.59H782.3V203.2Z"/><path class="cls-2" d="M847.66,205.91a48.75,48.75,0,0,1-21.18-4.4,34.89,34.89,0,0,1-14.43-12.17,31.62,31.62,0,0,1-5.18-17.92,34,34,0,0,1,17.47-30.65q8.89-5.42,22.42-7.66l44.85-7.44v17.58l-40.12,7q-11.72,2-17,7.32a17.91,17.91,0,0,0-5.3,13.19,15.45,15.45,0,0,0,6,12.39q6,5,15,5,11.49,0,20-4.85a34.69,34.69,0,0,0,13.18-13.18A36.29,36.29,0,0,0,888,151.81v-31.1a20.23,20.23,0,0,0-7.21-16.11q-7.21-6.19-19.16-6.2a32,32,0,0,0-18.36,5.41,32.73,32.73,0,0,0-11.84,14l-18.25-9.46a40.36,40.36,0,0,1,10.82-15,56.07,56.07,0,0,1,17.35-10.48A57.12,57.12,0,0,1,862.09,79q14,0,24.56,5.29a40.65,40.65,0,0,1,16.57,14.77,39.66,39.66,0,0,1,6,21.63V203.2H888.68v-23l3.83,1.58A43.25,43.25,0,0,1,882,194.3a49.09,49.09,0,0,1-15.32,8.56A57.23,57.23,0,0,1,847.66,205.91Z"/><path class="cls-2" d="M984.69,205.91A45.84,45.84,0,0,1,961,199.82a42.67,42.67,0,0,1-16.22-17q-5.87-10.94-5.86-25.13v-76h21.18v73.7a32.23,32.23,0,0,0,3.72,15.78,27,27,0,0,0,10.37,10.59,32.12,32.12,0,0,0,30.42,0,26.31,26.31,0,0,0,10.37-11,36.94,36.94,0,0,0,3.72-17.13V81.72h21.19V203.2H1019.4V179.54l3.15,2a35.07,35.07,0,0,1-14.42,17.92A42.9,42.9,0,0,1,984.69,205.91Z"/><path class="cls-2" d="M1072.13,203.2V81.72h20.74V104l-2.26-3.16a30.68,30.68,0,0,1,13.07-15.44q8.8-5.07,21.42-5.07h7.43v20.06h-10.59q-12.84,0-20.74,7.89t-7.88,22.53V203.2Z"/><path class="cls-2" d="M1186.85,205.91a48.76,48.76,0,0,1-21.19-4.4,34.86,34.86,0,0,1-14.42-12.17,31.55,31.55,0,0,1-5.19-17.92,34,34,0,0,1,17.47-30.65q8.89-5.42,22.42-7.66l44.85-7.44v17.58l-40.11,7q-11.73,2-17,7.32a17.9,17.9,0,0,0-5.29,13.19,15.45,15.45,0,0,0,6,12.39q6,5,15,5,11.51,0,20-4.85a34.62,34.62,0,0,0,13.18-13.18,36.3,36.3,0,0,0,4.74-18.26v-31.1A20.26,20.26,0,0,0,1220,104.6q-7.23-6.19-19.16-6.2a32,32,0,0,0-18.37,5.41,32.7,32.7,0,0,0-11.83,14l-18.26-9.46a40.47,40.47,0,0,1,10.82-15,56.07,56.07,0,0,1,17.35-10.48A57.16,57.16,0,0,1,1201.27,79q14,0,24.56,5.29a40.52,40.52,0,0,1,16.57,14.77,39.66,39.66,0,0,1,6,21.63V203.2h-20.51v-23l3.84,1.58a43.41,43.41,0,0,1-10.48,12.51,49.25,49.25,0,0,1-15.33,8.56A57.21,57.21,0,0,1,1186.85,205.91Z"/><polygon class="cls-2" points="1269.85 73.03 1280.51 73.03 1280.51 107.56 1288.75 107.56 1288.75 73.03 1299.32 73.03 1299.32 65.73 1269.85 65.73 1269.85 73.03"/><polygon class="cls-2" points="1338.82 65.73 1325.36 84.19 1311.58 65.73 1303.72 65.73 1303.72 107.56 1311.96 107.56 1311.96 79.53 1324.68 96.71 1325.71 96.71 1338.54 80.01 1338.54 107.56 1346.68 107.56 1346.68 65.73 1338.82 65.73"/><path class="cls-2" d="M80.69,103.66a68.73,68.73,0,0,0-25.06,45.5l-.82.11a84.93,84.93,0,0,1-5-18.73c-9-69.24,75.21-111.55,125-62,20,19.91,27.89,51.13,17.36,77.93-.34.86-1,3.33-2.05,2.68A67.56,67.56,0,0,0,80.69,103.66ZM101,20C44.12,32.21,8.39,90,23,146.7A102.5,102.5,0,0,0,38.1,179.48c1,1.4,2,2.75,3,4.09A105.14,105.14,0,0,0,50.28,194,102,102,0,0,0,108,222.85V191.52c-28.34-12-31.28-51.32-5.1-67.56,27.22-16.88,61.77,5.52,58,37.1a38.48,38.48,0,0,1-23,30.44v31.38A101.61,101.61,0,0,0,196,193.6h0l.14-.14.12-.14a94.18,94.18,0,0,0,8.54-9.78c1-1.34,2-2.68,3-4.08a101,101,0,0,0,17.34-43.88C235.05,64.32,171.6,4.82,101,20Z"/><rect class="cls-2" x="19.32" y="193.99" width="88.65" height="29.6"/><rect class="cls-2" x="137.96" y="193.6" width="88.23" height="29.99"/><path class="cls-3" d="M108,191.52,50.28,194a105.14,105.14,0,0,1-9.19-10.42c-1-1.34-2-2.69-3-4.09Z"/><path class="cls-3" d="M207.77,179.46c-1,1.4-1.93,2.74-3,4.08a94.18,94.18,0,0,1-8.54,9.78l-.12.14-.14.14h0l-.45.39-9.16-.39-48.44-2.08Z"/></g></g></svg>