<svg id="Layer_1" data-name="Layer 1" xmlns="http://www.w3.org/2000/svg" viewBox="0 0 1080 1080"><defs><style>.cls-1{fill:#970148;}</style></defs><path d="M157.71,609.73a52.18,52.18,0,0,1-26.9-6.91A51.3,51.3,0,0,1,112.11,584a55.66,55.66,0,0,1-.09-53.52,49.91,49.91,0,0,1,18.7-18.6,53.2,53.2,0,0,1,27-6.82,52.11,52.11,0,0,1,19.9,3.77,48.77,48.77,0,0,1,15.93,10.41,38.58,38.58,0,0,1,9.68,15.48L182,544.14a24.56,24.56,0,0,0-9.3-12.25,25.82,25.82,0,0,0-15-4.51,26.42,26.42,0,0,0-14.09,3.78A25.91,25.91,0,0,0,134,541.84a36.58,36.58,0,0,0,0,31.23,26.68,26.68,0,0,0,9.67,10.68,26,26,0,0,0,14.09,3.87,24.93,24.93,0,0,0,15-4.6,26.58,26.58,0,0,0,9.3-12.35l21.19,9.58a40.4,40.4,0,0,1-9.58,15.2A46.81,46.81,0,0,1,177.79,606,52.37,52.37,0,0,1,157.71,609.73Z"/><path d="M270.28,609.73a53.16,53.16,0,0,1-26.63-6.82A52.23,52.23,0,0,1,224.4,584.3a54,54,0,0,1,0-53.79,52.72,52.72,0,0,1,45.88-25.42,53.33,53.33,0,0,1,26.89,6.82,52,52,0,0,1,19.07,18.51q7.1,11.7,7.09,27a50.6,50.6,0,0,1-7.18,26.89A52.44,52.44,0,0,1,297,602.91,53,53,0,0,1,270.28,609.73Zm0-22.11a26.67,26.67,0,0,0,14.46-3.87A27.21,27.21,0,0,0,294.5,573a33.14,33.14,0,0,0,3.59-15.56,32.67,32.67,0,0,0-3.59-15.48,27.4,27.4,0,0,0-9.76-10.68,28.78,28.78,0,0,0-28.83,0,27.12,27.12,0,0,0-9.86,10.68,32.67,32.67,0,0,0-3.6,15.48,33.14,33.14,0,0,0,3.6,15.56,26.36,26.36,0,0,0,24.23,14.65Z"/><path d="M341.39,607.52V507.3h22.84v22.29l-1.84-3.32q3.5-11.24,11-15.66t18-4.42h5.9v21.56h-8.66q-10.32,0-16.58,6.26T365.7,551.7v55.82Z"/><path d="M458.92,608.62q-16.95,0-26.34-9.3t-9.4-26.25V528.85H406.05V507.3h1.84q7.37,0,11.33-3.87t4-11.24v-7.74H447.5V507.3h23v21.55h-23v42.93a18.7,18.7,0,0,0,1.75,8.47,11.69,11.69,0,0,0,5.53,5.35,22.17,22.17,0,0,0,9.67,1.84,27.86,27.86,0,0,0,3-.19l3.41-.37v20.64c-1.72.24-3.69.49-5.9.73A54.39,54.39,0,0,1,458.92,608.62Z"/><path d="M489.13,496.06V470.27h24.32v25.79Zm0,111.46V507.3h24.32V607.52Z"/><path d="M566.88,609.73a40,40,0,0,1-17.32-3.59,28.53,28.53,0,0,1-11.79-9.95,25.84,25.84,0,0,1-4.24-14.65,27.79,27.79,0,0,1,14.28-25q7.28-4.43,18.33-6.27l36.66-6.08v14.37L570,564.23q-9.59,1.65-13.91,6A14.62,14.62,0,0,0,551.77,581a12.65,12.65,0,0,0,4.88,10.13,18.56,18.56,0,0,0,12.26,4,32.11,32.11,0,0,0,16.3-4A28.3,28.3,0,0,0,596,580.44a29.7,29.7,0,0,0,3.87-14.93V540.09a16.56,16.56,0,0,0-5.9-13.17q-5.9-5.07-15.66-5.07a26.21,26.21,0,0,0-15,4.42,26.83,26.83,0,0,0-9.68,11.43L538.69,530a33,33,0,0,1,8.85-12.26,46.11,46.11,0,0,1,14.18-8.56A46.59,46.59,0,0,1,578.67,506a44.3,44.3,0,0,1,20.08,4.33,33.09,33.09,0,0,1,13.54,12.07,32.44,32.44,0,0,1,4.88,17.68v67.43H600.41V588.73l3.13,1.29A35.44,35.44,0,0,1,595,600.24a40.1,40.1,0,0,1-12.52,7A46.73,46.73,0,0,1,566.88,609.73Z"/><path d="M678.89,609.73a37.5,37.5,0,0,1-19.34-5,34.94,34.94,0,0,1-13.27-13.91,42.87,42.87,0,0,1-4.79-20.54V508.22h17.32v60.24a26.31,26.31,0,0,0,3,12.9,22.18,22.18,0,0,0,8.47,8.66,26.27,26.27,0,0,0,24.87,0,21.6,21.6,0,0,0,8.48-9,30.15,30.15,0,0,0,3-14V508.22H724v99.3H707.26V588.18l2.58,1.65a28.66,28.66,0,0,1-11.79,14.65A35.06,35.06,0,0,1,678.89,609.73Z"/><path d="M750.37,607.52v-99.3h17v18.24l-1.85-2.58a25.08,25.08,0,0,1,10.69-12.62q7.19-4.14,17.5-4.15h6.08v16.4h-8.66q-10.5,0-17,6.45t-6.44,18.42v59.14Z"/><path d="M844.14,609.73a40,40,0,0,1-17.32-3.59A28.53,28.53,0,0,1,815,596.19a25.76,25.76,0,0,1-4.24-14.65,27.79,27.79,0,0,1,14.28-25q7.27-4.43,18.33-6.27l36.66-6.08v14.37l-32.79,5.72q-9.59,1.65-13.91,6A14.62,14.62,0,0,0,829,581a12.65,12.65,0,0,0,4.88,10.13,18.56,18.56,0,0,0,12.26,4,32.11,32.11,0,0,0,16.3-4,28.3,28.3,0,0,0,10.78-10.77,29.7,29.7,0,0,0,3.87-14.93V540.09a16.56,16.56,0,0,0-5.9-13.17q-5.9-5.07-15.66-5.07a26.21,26.21,0,0,0-15,4.42,26.83,26.83,0,0,0-9.68,11.43L816,530a33,33,0,0,1,8.85-12.26A46,46,0,0,1,839,509.14,46.59,46.59,0,0,1,855.93,506,44.3,44.3,0,0,1,876,510.34a33.09,33.09,0,0,1,13.54,12.07,32.44,32.44,0,0,1,4.88,17.68v67.43H877.67V588.73L880.8,590a35.44,35.44,0,0,1-8.57,10.22,40.1,40.1,0,0,1-12.52,7A46.73,46.73,0,0,1,844.14,609.73Z"/><polygon points="911.99 501.12 920.71 501.12 920.71 529.34 927.44 529.34 927.44 501.12 936.08 501.12 936.08 495.15 911.99 495.15 911.99 501.12"/><polygon points="968.37 495.15 957.37 510.23 946.1 495.15 939.68 495.15 939.68 529.34 946.41 529.34 946.41 506.43 956.81 520.47 957.66 520.47 968.14 506.82 968.14 529.34 974.79 529.34 974.79 495.15 968.37 495.15"/><path class="cls-1" d="M540,1059.53C253.53,1059.53,20.47,826.47,20.47,540S253.53,20.47,540,20.47,1059.53,253.53,1059.53,540,826.47,1059.53,540,1059.53Zm0-1001.7C274.14,57.83,57.84,274.13,57.84,540S274.14,1022.17,540,1022.17,1022.16,805.87,1022.16,540,805.86,57.83,540,57.83Z"/></svg>